<svg width="87" height="19" viewBox="0 0 87 19" fill="none" xmlns="http://www.w3.org/2000/svg">
<path d="M12.751 14.5753H10.3061L8.96691 10.4723H4.31194L3.03624 14.5753H0.656006L5.26791 0.606873H8.11644L12.751 14.5753ZM8.56321 8.75094L7.3521 5.10348C7.22399 4.73087 6.98392 3.85338 6.62974 2.47206H6.58667C6.44565 3.06615 6.2185 3.94364 5.9063 5.10348L4.71672 8.75094H8.56321Z" fill="white"/>
<path d="M24.6112 9.41537C24.6112 11.1284 24.1364 12.4824 23.1869 13.4764C22.3364 14.3612 21.2803 14.8031 20.0197 14.8031C18.659 14.8031 17.6815 14.3266 17.0861 13.3735H17.0431V18.6794H14.7479V7.81888C14.7479 6.74196 14.7188 5.6367 14.6628 4.5031H16.6814L16.8095 6.09959H16.8525C17.618 4.89671 18.7795 4.29633 20.3384 4.29633C21.557 4.29633 22.5744 4.76551 23.3882 5.70493C24.2042 6.64539 24.6112 7.88186 24.6112 9.41537ZM22.2729 9.49724C22.2729 8.51688 22.0468 7.70867 21.5925 7.07259C21.0963 6.40923 20.4299 6.07755 19.5945 6.07755C19.0282 6.07755 18.5136 6.26228 18.0539 6.6265C17.5932 6.99387 17.2918 7.47355 17.1507 8.06764C17.0797 8.34475 17.0442 8.57146 17.0442 8.7499V10.4293C17.0442 11.1619 17.2745 11.7802 17.7353 12.2851C18.1961 12.7899 18.7946 13.0418 19.531 13.0418C20.3954 13.0418 21.0683 12.7164 21.5495 12.0678C22.0318 11.4181 22.2729 10.5616 22.2729 9.49724Z" fill="white"/>
<path d="M36.4931 9.41537C36.4931 11.1284 36.0183 12.4824 35.0677 13.4764C34.2184 14.3612 33.1623 14.8031 31.9016 14.8031C30.5409 14.8031 29.5634 14.3266 28.9691 13.3735H28.9261V18.6794H26.6309V7.81888C26.6309 6.74196 26.6018 5.6367 26.5458 4.5031H28.5644L28.6925 6.09959H28.7355C29.4999 4.89671 30.6615 4.29633 32.2214 4.29633C33.4389 4.29633 34.4563 4.76551 35.2723 5.70493C36.0851 6.64539 36.4931 7.88186 36.4931 9.41537ZM34.1548 9.49724C34.1548 8.51688 33.9277 7.70867 33.4734 7.07259C32.9771 6.40923 32.3129 6.07755 31.4764 6.07755C30.9091 6.07755 30.3956 6.26228 29.9348 6.6265C29.474 6.99387 29.1737 7.47355 29.0326 8.06764C28.9627 8.34475 28.9261 8.57146 28.9261 8.7499V10.4293C28.9261 11.1619 29.1565 11.7802 29.6151 12.2851C30.0758 12.7889 30.6744 13.0418 31.4129 13.0418C32.2774 13.0418 32.9502 12.7164 33.4314 12.0678C33.9137 11.4181 34.1548 10.5616 34.1548 9.49724Z" fill="white"/>
<path d="M49.7775 10.6577C49.7775 11.8459 49.3544 12.8126 48.505 13.5589C47.5716 14.3745 46.2722 14.7817 44.6025 14.7817C43.0609 14.7817 41.825 14.492 40.8895 13.9116L41.4213 12.0464C42.429 12.6405 43.5346 12.9386 44.7392 12.9386C45.6037 12.9386 46.2765 12.7475 46.7599 12.3676C47.2411 11.9876 47.4812 11.4775 47.4812 10.8414C47.4812 10.2746 47.2831 9.79702 46.8859 9.40971C46.4908 9.0224 45.8309 8.66238 44.9093 8.32964C42.401 7.41752 41.1479 6.08134 41.1479 4.32426C41.1479 3.17597 41.5871 2.23445 42.4667 1.50181C43.343 0.768115 44.5121 0.401794 45.974 0.401794C47.2777 0.401794 48.3607 0.623266 49.2252 1.06516L48.6514 2.88942C47.844 2.46117 46.9311 2.24704 45.9094 2.24704C45.102 2.24704 44.4712 2.44122 44.019 2.82749C43.6369 3.17282 43.4452 3.59372 43.4452 4.09229C43.4452 4.6444 43.6638 5.10098 44.103 5.45996C44.4852 5.79164 45.1796 6.15061 46.1872 6.53793C47.4198 7.02181 48.3252 7.58755 48.9076 8.23623C49.4879 8.8828 49.7775 9.69206 49.7775 10.6577Z" fill="white"/>
<path d="M57.3661 6.18168H54.8362V11.0719C54.8362 12.3157 55.2819 12.9371 56.1754 12.9371C56.5856 12.9371 56.9258 12.9025 57.1949 12.8332L57.2584 14.5325C56.8063 14.6973 56.211 14.7802 55.4735 14.7802C54.5671 14.7802 53.8587 14.5105 53.3473 13.972C52.8381 13.4325 52.5819 12.5277 52.5819 11.2566V6.17958H51.0748V4.50018H52.5819V2.65598L54.8362 1.99261V4.50018H57.3661V6.18168Z" fill="white"/>
<path d="M68.7806 9.45623C68.7806 11.0044 68.3263 12.2755 67.4198 13.2695C66.4693 14.2929 65.2075 14.803 63.6347 14.803C62.119 14.803 60.9121 14.3129 60.0122 13.3325C59.1122 12.3522 58.6622 11.1146 58.6622 9.62312C58.6622 8.06232 59.1251 6.78387 60.0541 5.78988C60.981 4.79483 62.232 4.2973 63.8048 4.2973C65.3206 4.2973 66.5403 4.78748 67.4607 5.76888C68.3414 6.7209 68.7806 7.95001 68.7806 9.45623ZM66.3993 9.52865C66.3993 8.59973 66.1958 7.80306 65.7835 7.13865C65.3023 6.33463 64.6144 5.93367 63.723 5.93367C62.8004 5.93367 62.0996 6.33568 61.6184 7.13865C61.206 7.80411 61.0026 8.61338 61.0026 9.57064C61.0026 10.4996 61.206 11.2962 61.6184 11.9596C62.1146 12.7636 62.8079 13.1646 63.7025 13.1646C64.5788 13.1646 65.2668 12.7552 65.763 11.9386C66.1861 11.2616 66.3993 10.4565 66.3993 9.52865Z" fill="white"/>
<path d="M76.2411 6.47116C76.014 6.43022 75.7717 6.40923 75.5177 6.40923C74.7103 6.40923 74.0859 6.70627 73.6466 7.30141C73.2645 7.82623 73.0728 8.48959 73.0728 9.29046V14.5753H70.7787L70.8002 7.67508C70.8002 6.51419 70.7712 5.45722 70.7141 4.50415H72.7133L72.7972 6.43127H72.8608C73.103 5.76896 73.4851 5.23574 74.0083 4.83583C74.5197 4.47581 75.072 4.29633 75.6673 4.29633C75.8794 4.29633 76.071 4.31102 76.2411 4.33726V6.47116Z" fill="white"/>
<path d="M86.5059 9.06205C86.5059 9.46301 86.479 9.80099 86.4219 10.077H79.5364C79.5633 11.0721 79.8959 11.8331 80.5354 12.3579C81.1156 12.8271 81.866 13.0622 82.7875 13.0622C83.807 13.0622 84.7371 12.9037 85.5736 12.5857L85.9332 14.1391C84.9557 14.5548 83.8016 14.7615 82.4699 14.7615C80.868 14.7615 79.6106 14.3018 78.6956 13.3834C77.7827 12.4649 77.3251 11.2316 77.3251 9.68448C77.3251 8.16567 77.7504 6.90087 78.6019 5.89217C79.4933 4.81525 80.6979 4.27679 82.2137 4.27679C83.7026 4.27679 84.8297 4.81525 85.5951 5.89217C86.2012 6.74762 86.5059 7.80565 86.5059 9.06205ZM84.3173 8.48161C84.3323 7.81824 84.1827 7.24514 83.8716 6.76126C83.4743 6.13883 82.8639 5.82814 82.0425 5.82814C81.2922 5.82814 80.6818 6.13149 80.2157 6.74027C79.8335 7.22415 79.6063 7.8046 79.5364 8.48056H84.3173V8.48161Z" fill="white"/>
</svg>
