<svg width="84" height="8" viewBox="0 0 84 8" fill="none" xmlns="http://www.w3.org/2000/svg">
<path d="M5.80439 4.01395C5.80439 5.24936 5.42437 6.17933 4.66541 6.80386C3.96242 7.38011 2.96339 7.66875 1.66938 7.66875C1.02777 7.66875 0.478727 7.64146 0.019043 7.58688V0.836719C0.618678 0.742252 1.2646 0.69397 1.9622 0.69397C3.19485 0.69397 4.1239 0.955327 4.75045 1.47804C5.45236 2.06898 5.80439 2.91393 5.80439 4.01395ZM4.61481 4.04439C4.61481 3.24352 4.39735 2.62948 3.96242 2.20124C3.5275 1.77404 2.89234 1.55991 2.05587 1.55991C1.70061 1.55991 1.3981 1.58301 1.14726 1.63129V6.76292C1.28613 6.78392 1.5402 6.79336 1.90945 6.79336C2.77284 6.79336 3.43922 6.5593 3.9086 6.09116C4.37797 5.62303 4.61481 4.94077 4.61481 4.04439Z" fill="white"/>
<path d="M12.1118 5.09301C12.1118 5.85399 11.8889 6.47747 11.4432 6.96659C10.976 7.46937 10.357 7.72023 9.58404 7.72023C8.83907 7.72023 8.24589 7.47986 7.80343 6.99703C7.36205 6.51525 7.14136 5.90752 7.14136 5.17488C7.14136 4.40865 7.36851 3.77992 7.82496 3.29184C8.28141 2.80377 8.89505 2.5592 9.668 2.5592C10.413 2.5592 11.0115 2.79957 11.4648 3.28135C11.8954 3.74948 12.1118 4.35407 12.1118 5.09301ZM10.9416 5.1287C10.9416 4.67211 10.8404 4.28059 10.639 3.95416C10.4022 3.5595 10.0653 3.36217 9.6271 3.36217C9.17387 3.36217 8.82938 3.5595 8.59254 3.95416C8.39015 4.28059 8.29003 4.6784 8.29003 5.14864C8.29003 5.60523 8.39122 5.99674 8.59254 6.32317C8.83691 6.71783 9.1771 6.91516 9.61633 6.91516C10.0469 6.91516 10.385 6.71468 10.6283 6.31268C10.8371 5.97994 10.9416 5.58528 10.9416 5.1287Z" fill="white"/>
<path d="M20.5693 2.65967L18.9814 7.60762H17.9479L17.2901 5.45903C17.1233 4.92267 16.9876 4.38946 16.8821 3.86044H16.8617C16.7637 4.40415 16.6281 4.93631 16.4537 5.45903L15.755 7.60762H14.7097L13.2165 2.65967H14.3759L14.9497 5.01189C15.0886 5.56819 15.2027 6.09825 15.2942 6.59997H15.3147C15.3986 6.18642 15.5375 5.65951 15.7334 5.02238L16.4537 2.66072H17.373L18.0631 4.972C18.2299 5.53565 18.3656 6.07831 18.47 6.60102H18.5012C18.5777 6.09195 18.6929 5.5493 18.8457 4.972L19.4615 2.66072H20.5693V2.65967Z" fill="white"/>
<path d="M26.418 7.60716H25.2898V4.77316C25.2898 3.89987 24.9496 3.46323 24.2671 3.46323C23.9323 3.46323 23.6621 3.58289 23.4522 3.82325C23.2444 4.06362 23.1389 4.34701 23.1389 4.67135V7.60611H22.0107V4.07306C22.0107 3.63852 21.9967 3.16723 21.9698 2.65711H22.9613L23.014 3.43069H23.0453C23.1766 3.19032 23.3725 2.99194 23.6298 2.83345C23.9355 2.64872 24.2779 2.5553 24.6525 2.5553C25.1262 2.5553 25.5202 2.70435 25.8335 3.00349C26.2232 3.36981 26.418 3.91667 26.418 4.64301V7.60716Z" fill="white"/>
<path d="M29.5292 7.60758H28.402V0.389282H29.5292V7.60758Z" fill="white"/>
<path d="M36.1716 5.09301C36.1716 5.85399 35.9487 6.47747 35.503 6.96659C35.0358 7.46937 34.4157 7.72023 33.6439 7.72023C32.8978 7.72023 32.3046 7.47986 31.8632 6.99703C31.4219 6.51525 31.2012 5.90752 31.2012 5.17488C31.2012 4.40865 31.4283 3.77992 31.8848 3.29184C32.3412 2.80377 32.9549 2.5592 33.7267 2.5592C34.4728 2.5592 35.0703 2.79957 35.5246 3.28135C35.9552 3.74948 36.1716 4.35407 36.1716 5.09301ZM35.0003 5.1287C35.0003 4.67211 34.8991 4.28059 34.6978 3.95416C34.462 3.5595 34.124 3.36217 33.6869 3.36217C33.2326 3.36217 32.8881 3.5595 32.6524 3.95416C32.45 4.28059 32.3498 4.6784 32.3498 5.14864C32.3498 5.60523 32.451 5.99674 32.6524 6.32317C32.8967 6.71783 33.2369 6.91516 33.6761 6.91516C34.1068 6.91516 34.4437 6.71468 34.687 6.31268C34.8969 5.97994 35.0003 5.58528 35.0003 5.1287Z" fill="white"/>
<path d="M41.6317 7.60792H40.6186L40.5347 7.03797H40.5035C40.1568 7.49246 39.6627 7.72023 39.0211 7.72023C38.542 7.72023 38.1544 7.57013 37.8627 7.27204C37.5979 7.00123 37.4655 6.6643 37.4655 6.26439C37.4655 5.65981 37.7238 5.19902 38.2438 4.87993C38.7627 4.56085 39.4926 4.40445 40.4324 4.4118V4.31943C40.4324 3.66761 40.0814 3.34223 39.3785 3.34223C38.8779 3.34223 38.4365 3.46503 38.0554 3.70855L37.8261 2.9864C38.2976 2.70195 38.88 2.5592 39.5669 2.5592C40.8932 2.5592 41.5585 3.24146 41.5585 4.60598V6.42814C41.5585 6.92251 41.5832 7.31612 41.6317 7.60792ZM40.4604 5.90752V5.14444C39.2159 5.12345 38.5937 5.45618 38.5937 6.14159C38.5937 6.3998 38.6647 6.59293 38.8101 6.72203C38.9554 6.85114 39.1406 6.91516 39.3612 6.91516C39.6088 6.91516 39.8403 6.83854 40.0513 6.68634C40.2634 6.5331 40.3936 6.33892 40.4421 6.10065C40.4539 6.04712 40.4604 5.98204 40.4604 5.90752Z" fill="white"/>
<path d="M48.0426 7.60758H47.0414L46.9886 6.81301H46.9574C46.6377 7.4176 46.0929 7.71989 45.3275 7.71989C44.716 7.71989 44.2068 7.48582 43.8031 7.01769C43.3994 6.54955 43.1981 5.94182 43.1981 5.19553C43.1981 4.39467 43.4167 3.74599 43.8559 3.25057C44.2811 2.78873 44.8022 2.55781 45.4222 2.55781C46.1037 2.55781 46.5806 2.78139 46.8519 3.22958H46.8734V0.389282H48.0027V6.27455C48.0027 6.75633 48.0156 7.20032 48.0426 7.60758ZM46.8734 5.52092V4.69591C46.8734 4.55316 46.8627 4.4377 46.8422 4.34953C46.7787 4.08503 46.642 3.8625 46.4342 3.68302C46.2243 3.50353 45.9713 3.41326 45.6795 3.41326C45.2586 3.41326 44.9292 3.57596 44.687 3.90239C44.4469 4.22882 44.3253 4.64553 44.3253 5.1546C44.3253 5.64372 44.4404 6.04048 44.6719 6.34593C44.9163 6.67131 45.2457 6.834 45.658 6.834C46.0283 6.834 46.3244 6.6986 46.5494 6.42675C46.7669 6.17589 46.8734 5.87359 46.8734 5.52092Z" fill="white"/>
<path d="M57.6916 5.09301C57.6916 5.85399 57.4688 6.47747 57.0231 6.96659C56.5559 7.46937 55.938 7.72023 55.1639 7.72023C54.42 7.72023 53.8269 7.47986 53.3833 6.99703C52.9419 6.51525 52.7213 5.90752 52.7213 5.17488C52.7213 4.40865 52.9484 3.77992 53.4049 3.29184C53.8613 2.80377 54.4749 2.5592 55.249 2.5592C55.9929 2.5592 56.5925 2.79957 57.0446 3.28135C57.4753 3.74948 57.6916 4.35407 57.6916 5.09301ZM56.5225 5.1287C56.5225 4.67211 56.4213 4.28059 56.22 3.95416C55.9821 3.5595 55.6462 3.36217 55.207 3.36217C54.7548 3.36217 54.4103 3.5595 54.1724 3.95416C53.97 4.28059 53.8699 4.6784 53.8699 5.14864C53.8699 5.60523 53.9711 5.99674 54.1724 6.32317C54.4168 6.71783 54.757 6.91516 55.1962 6.91516C55.6268 6.91516 55.966 6.71468 56.2093 6.31268C56.417 5.97994 56.5225 5.58528 56.5225 5.1287Z" fill="white"/>
<path d="M63.7578 7.60716H62.6307V4.77316C62.6307 3.89987 62.2905 3.46323 61.6069 3.46323C61.2721 3.46323 61.0019 3.58289 60.793 3.82325C60.5842 4.06362 60.4797 4.34701 60.4797 4.67135V7.60611H59.3504V4.07306C59.3504 3.63852 59.3375 3.16723 59.3106 2.65711H60.301L60.3538 3.43069H60.385C60.5174 3.19032 60.7133 2.99194 60.9696 2.83345C61.2764 2.64872 61.6176 2.5553 61.9934 2.5553C62.466 2.5553 62.86 2.70435 63.1732 3.00349C63.564 3.36981 63.7578 3.91667 63.7578 4.64301V7.60716Z" fill="white"/>
<path d="M71.3508 3.48359H70.1085V5.88724C70.1085 6.49812 70.3292 6.80357 70.7663 6.80357C70.9686 6.80357 71.1366 6.78677 71.269 6.75214L71.2981 7.58659C71.0752 7.66846 70.7824 7.7094 70.4218 7.7094C69.9761 7.7094 69.6294 7.57714 69.3786 7.31264C69.1267 7.04813 69.0018 6.60309 69.0018 5.97856V3.48359H68.2601V2.65963H69.0018V1.75275L70.1074 1.42737V2.65858H71.3497V3.48359H71.3508Z" fill="white"/>
<path d="M77.3235 7.60758H76.1942V4.79458C76.1942 3.90764 75.854 3.46364 75.1725 3.46364C74.6493 3.46364 74.2919 3.7208 74.096 4.23512C74.0626 4.34323 74.0432 4.47549 74.0432 4.63083V7.60653H72.9161V0.389282H74.0432V3.37128H74.0648C74.42 2.82862 74.9292 2.55782 75.5891 2.55782C76.0564 2.55782 76.4428 2.70686 76.7497 3.00601C77.1318 3.37863 77.3235 3.93283 77.3235 4.66547V7.60758Z" fill="white"/>
<path d="M83.4844 4.89956C83.4844 5.09689 83.4693 5.26273 83.4424 5.39813H80.0588C80.0739 5.88726 80.2354 6.25988 80.5487 6.51808C80.835 6.749 81.2043 6.86446 81.6564 6.86446C82.157 6.86446 82.6135 6.78679 83.0247 6.63039L83.2013 7.39452C82.72 7.59815 82.1538 7.69997 81.4982 7.69997C80.7123 7.69997 80.0933 7.4743 79.6454 7.02296C79.1954 6.57162 78.9726 5.96598 78.9726 5.20605C78.9726 4.45976 79.1804 3.83838 79.5991 3.34296C80.0362 2.81394 80.6272 2.54944 81.3733 2.54944C82.1032 2.54944 82.6576 2.81394 83.0322 3.34296C83.3347 3.76281 83.4844 4.28237 83.4844 4.89956ZM82.4078 4.61511C82.4165 4.28867 82.3422 4.00737 82.1893 3.77016C81.9934 3.46471 81.6952 3.31147 81.2915 3.31147C80.9233 3.31147 80.6229 3.46052 80.3936 3.75966C80.2063 3.99793 80.0954 4.28237 80.0588 4.61511H82.4078Z" fill="white"/>
</svg>
