<svg width="43" height="8" viewBox="0 0 43 8" fill="none" xmlns="http://www.w3.org/2000/svg">
<path d="M7.31005 4.25963C7.31005 5.13607 7.04128 5.83801 6.51182 6.36151C5.90306 6.9821 5.1102 7.29437 4.13862 7.29437C3.21003 7.29437 2.41717 6.97685 1.76675 6.35101C1.115 5.71599 0.789795 4.93664 0.789795 4.00378C0.789795 3.07092 1.115 2.29158 1.76675 1.6618C2.41717 1.03071 3.21003 0.713196 4.13862 0.713196C4.60089 0.713196 5.04166 0.80635 5.46228 0.979539C5.88156 1.15404 6.22289 1.39021 6.47015 1.68148L5.90844 2.23516C5.47707 1.7379 4.88982 1.49255 4.13862 1.49255C3.46133 1.49255 2.87407 1.72346 2.37551 2.18924C1.88233 2.65632 1.63506 3.26117 1.63506 4.00378C1.63506 4.74639 1.88233 5.35649 2.37551 5.82357C2.87407 6.2841 3.46133 6.52027 4.13862 6.52027C4.85756 6.52027 5.46229 6.2841 5.93935 5.81833C6.2538 5.51 6.43253 5.0849 6.47957 4.54172H4.13862V3.78336H7.26167C7.2993 3.94736 7.31005 4.10612 7.31005 4.25963Z" fill="white" stroke="white" stroke-width="0.129185" stroke-miterlimit="10"/>
<path d="M12.2649 1.63064H9.33128V3.62493H11.9759V4.38329H9.33128V6.37758H12.2649V7.15037H8.50079V0.857849H12.2649V1.63064Z" fill="white" stroke="white" stroke-width="0.129185" stroke-miterlimit="10"/>
<path d="M15.7614 7.15037H14.9309V1.63064H13.1315V0.857849H17.5621V1.63064H15.7614V7.15037Z" fill="white" stroke="white" stroke-width="0.129185" stroke-miterlimit="10"/>
<path d="M20.7686 7.15037V0.857849H21.5978V7.15037H20.7686Z" fill="white" stroke="white" stroke-width="0.129185" stroke-miterlimit="10"/>
<path d="M25.2731 7.15037H24.4493V1.63064H22.6432V0.857849H27.0792V1.63064H25.2731V7.15037Z" fill="white" stroke="white" stroke-width="0.129185" stroke-miterlimit="10"/>
<path d="M35.4674 6.34052C34.8318 6.97686 34.0443 7.29437 33.105 7.29437C32.1603 7.29437 31.3728 6.97686 30.7372 6.34052C30.1029 5.70549 29.7871 4.92614 29.7871 4.00378C29.7871 3.08142 30.1029 2.30207 30.7372 1.66705C31.3728 1.03071 32.1603 0.713196 33.105 0.713196C34.039 0.713196 34.8264 1.03071 35.4621 1.67229C36.1017 2.31257 36.4175 3.08667 36.4175 4.00378C36.4175 4.92614 36.1017 5.70549 35.4674 6.34052ZM31.3513 5.81308C31.8297 6.2841 32.4116 6.52027 33.105 6.52027C33.793 6.52027 34.3803 6.2841 34.8533 5.81308C35.3304 5.34206 35.5723 4.73721 35.5723 4.00378C35.5723 3.27035 35.3304 2.66551 34.8533 2.19449C34.3803 1.72346 33.793 1.4873 33.105 1.4873C32.4116 1.4873 31.8297 1.72346 31.3513 2.19449C30.8742 2.66551 30.6323 3.27035 30.6323 4.00378C30.6323 4.73721 30.8742 5.34206 31.3513 5.81308Z" fill="white" stroke="white" stroke-width="0.129185" stroke-miterlimit="10"/>
<path d="M37.5826 7.15037V0.857849H38.5905L41.7243 5.75174H41.7605L41.7243 4.54204V0.857849H42.5534V7.15037H41.688L38.4063 2.01506H38.3701L38.4063 3.23001V7.15037H37.5826Z" fill="white" stroke="white" stroke-width="0.129185" stroke-miterlimit="10"/>
</svg>
