<svg width="92" height="19" viewBox="0 0 92 19" fill="none" xmlns="http://www.w3.org/2000/svg">
<path d="M29.5827 5.33915C27.0577 5.33915 24.9949 7.21536 24.9949 9.804C24.9949 12.3717 27.0577 14.2675 29.5827 14.2675C32.1132 14.2675 34.1759 12.3717 34.1759 9.804C34.1759 7.21536 32.1132 5.33915 29.5827 5.33915ZM29.5827 12.5094C28.1972 12.5094 27.0053 11.3929 27.0053 9.804C27.0053 8.19414 28.1972 7.09727 29.5827 7.09727C30.9682 7.09727 32.1656 8.19414 32.1656 9.804C32.1656 11.3929 30.9682 12.5094 29.5827 12.5094ZM19.5726 5.33915C17.0421 5.33915 14.9847 7.21536 14.9847 9.804C14.9847 12.3717 17.0421 14.2675 19.5726 14.2675C22.1016 14.2675 24.1604 12.3717 24.1604 9.804C24.1604 7.21536 22.1016 5.33915 19.5726 5.33915ZM19.5726 12.5094C18.1857 12.5094 16.9897 11.3929 16.9897 9.804C16.9897 8.19414 18.1857 7.09727 19.5726 7.09727C20.958 7.09727 22.15 8.19414 22.15 9.804C22.15 11.3929 20.958 12.5094 19.5726 12.5094ZM7.66087 6.7076V8.6048H12.3011C12.1654 9.66493 11.8025 10.4443 11.2462 10.9875C10.5689 11.6435 9.514 12.3717 7.66087 12.3717C4.80523 12.3717 2.5691 10.1215 2.5691 7.33344C2.5691 4.54536 4.80523 2.29522 7.66087 2.29522C9.20492 2.29522 10.3284 2.88433 11.1575 3.64793L12.5269 2.31097C11.3671 1.22985 9.82443 0.399329 7.66087 0.399329C3.74495 0.399329 0.453918 3.51017 0.453918 7.33344C0.453918 11.1567 3.74495 14.2675 7.66087 14.2675C9.77739 14.2675 11.3671 13.5905 12.6169 12.3205C13.8976 11.0701 14.2967 9.31199 14.2967 7.89237C14.2967 7.45152 14.2591 7.0461 14.1919 6.7076H7.66087ZM56.3693 8.17839C55.9916 7.17993 54.8265 5.33915 52.4533 5.33915C50.1016 5.33915 48.1437 7.14844 48.1437 9.804C48.1437 12.3047 50.0815 14.2675 52.6791 14.2675C54.7795 14.2675 55.9916 13.0172 56.4902 12.289L54.9314 11.2748C54.4113 12.0174 53.7031 12.5094 52.6791 12.5094C51.6618 12.5094 50.9321 12.0541 50.4645 11.1567L56.5802 8.68615L56.3693 8.17839ZM50.1339 9.66493C50.0815 7.94353 51.5033 7.06185 52.5219 7.06185C53.3201 7.06185 53.9974 7.45152 54.2232 8.00914L50.1339 9.66493ZM45.1631 13.996H47.1734V0.875599H45.1631V13.996ZM41.8707 6.33367H41.8035C41.352 5.81148 40.4906 5.33915 39.3994 5.33915C37.1095 5.33915 35.0158 7.30195 35.0158 9.81844C35.0158 12.3205 37.1095 14.2675 39.3994 14.2675C40.4906 14.2675 41.352 13.7913 41.8035 13.2533H41.8707V13.8936C41.8707 15.6006 40.9367 16.5177 39.4303 16.5177C38.202 16.5177 37.4401 15.6517 37.1256 14.9236L35.3773 15.636C35.8813 16.8195 37.2157 18.2758 39.4303 18.2758C41.7874 18.2758 43.7762 16.9218 43.7762 13.6273V5.61073H41.8707V6.33367ZM39.5714 12.5094C38.1859 12.5094 37.0262 11.3771 37.0262 9.81844C37.0262 8.2453 38.1859 7.09727 39.5714 7.09727C40.9367 7.09727 42.0131 8.2453 42.0131 9.81844C42.0131 11.3771 40.9367 12.5094 39.5714 12.5094ZM65.7814 0.875599H60.9732V13.996H62.9782V9.02465H65.7814C68.0081 9.02465 70.1919 7.45152 70.1919 4.94947C70.1919 2.44873 68.0028 0.875599 65.7814 0.875599ZM65.8338 7.19961H62.9782V2.70064H65.8338C67.3309 2.70064 68.1855 3.91427 68.1855 4.94947C68.1855 5.96498 67.3309 7.19961 65.8338 7.19961ZM78.228 5.31422C76.7793 5.31422 75.2729 5.93874 74.6534 7.32294L76.4326 8.05112C76.8156 7.32294 77.5198 7.08678 78.2642 7.08678C79.3044 7.08678 80.3593 7.69687 80.3754 8.77406V8.91182C80.0126 8.70714 79.2358 8.40406 78.2804 8.40406C76.3641 8.40406 74.4115 9.43401 74.4115 11.3561C74.4115 13.1143 75.9811 14.2466 77.7455 14.2466C79.0947 14.2466 79.8392 13.6522 80.3069 12.9608H80.3754V13.975H82.3118V8.942C82.3118 6.61576 80.5326 5.31422 78.228 5.31422ZM77.9861 12.5042C77.3303 12.5042 76.4165 12.1867 76.4165 11.3929C76.4165 10.3774 77.556 9.98769 78.5424 9.98769C79.4253 9.98769 79.8392 10.1779 80.3754 10.4285C80.2182 11.6435 79.1471 12.5042 77.9861 12.5042ZM89.3669 5.60155L87.0623 11.2892H86.9937L84.6111 5.60155H82.4489L86.0289 13.5499L83.9863 17.9727H86.0813L91.5977 5.60155H89.3669ZM71.2938 13.996H73.3042V0.875599H71.2938V13.996Z" fill="white"/>
</svg>
